<svg id="Layer_1" data-name="Layer 1" xmlns="http://www.w3.org/2000/svg" xmlns:xlink="http://www.w3.org/1999/xlink" viewBox="0 0 1857.08 325.04"><defs><style>.cls-1,.cls-2,.cls-5,.cls-6,.cls-7{opacity:0.86;}.cls-1{fill:url(#linear-gradient);}.cls-2{fill:url(#linear-gradient-2);}.cls-3{fill:#fff;opacity:0.92;}.cls-4{fill:url(#linear-gradient-3);}.cls-5{fill:url(#linear-gradient-4);}.cls-6{fill:url(#linear-gradient-5);}.cls-7{fill:url(#linear-gradient-6);}.cls-8{font-size:219px;fill:#058263;font-family:Roboto-Thin, Roboto;font-weight:200;}.cls-9{fill:#000;}.cls-10{fill:none;stroke:#b3b3b3;stroke-miterlimit:10;stroke-width:5px;opacity:0.99;}</style><linearGradient id="linear-gradient" x1="1672.28" y1="-15600.23" x2="1561.03" y2="-15797.44" gradientTransform="matrix(1, 0, 0, -1, -1497.25, -15498.48)" gradientUnits="userSpaceOnUse"><stop offset="0" stop-color="#00b075"/><stop offset="1" stop-color="#00e025"/></linearGradient><linearGradient id="linear-gradient-2" x1="1497.25" y1="-15661" x2="1778.75" y2="-15661" gradientTransform="matrix(1, 0, 0, -1, -1497.25, -15498.48)" gradientUnits="userSpaceOnUse"><stop offset="0" stop-color="#00b075"/><stop offset="1" stop-color="#69ff94"/></linearGradient><linearGradient id="linear-gradient-3" x1="1588.88" y1="-15511.5" x2="1533.89" y2="-15608.98" gradientTransform="matrix(1, 0, 0, -1, -1497.25, -15498.48)" gradientUnits="userSpaceOnUse"><stop offset="0" stop-color="#b2ffff"/><stop offset="1" stop-color="#69ff94"/></linearGradient><linearGradient id="linear-gradient-4" x1="1569.57" y1="-15697.35" x2="1530.28" y2="-15767.01" xlink:href="#linear-gradient-3"/><linearGradient id="linear-gradient-5" x1="1638.57" y1="-15765.06" x2="1639.84" y2="-15839.64" xlink:href="#linear-gradient"/><linearGradient id="linear-gradient-6" x1="1567.35" y1="-15766.26" x2="1568.61" y2="-15840.85" gradientTransform="matrix(1, 0, 0, -1, -1497.25, -15498.48)" gradientUnits="userSpaceOnUse"><stop offset="0" stop-color="#007366"/><stop offset="1" stop-color="#00c237"/></linearGradient></defs><title>logo</title><polygon class="cls-1" points="0 81.26 140.75 0 281.49 81.26 281.49 243.78 140.75 325.04 0 243.78 0 81.26"/><polygon class="cls-2" points="140.75 0 181.38 92.15 281.49 81.26 222 162.52 281.49 243.78 181.38 232.89 140.75 325.04 100.12 232.89 0 243.78 59.49 162.52 0 81.26 100.12 92.15 140.75 0"/><polygon class="cls-3" points="59.49 162.52 100.12 92.15 181.38 92.15 222 162.52 181.38 232.89 100.12 232.89 59.49 162.52"/><polygon class="cls-4" points="0 81.26 100.12 92.15 140.75 0 0 81.26"/><polygon class="cls-5" points="100.12 232.89 0 243.78 59.49 162.52 100.12 232.89"/><polygon class="cls-6" points="140.75 325.04 181.38 232.89 100.12 232.89 140.75 325.04"/><polygon class="cls-7" points="0 243.78 100.12 232.89 140.75 325.04 0 243.78"/><text class="cls-8" transform="translate(306.75 238.99)">EMERALD<tspan class="cls-9" x="967.54" y="0" xml:space="preserve"> APPS</tspan></text><line class="cls-10" x1="1296.25" y1="68.52" x2="1296.25" y2="250.52"/></svg>