<svg xmlns="http://www.w3.org/2000/svg" width="15" height="15" viewBox="0 0 15 15"><defs><style>.a{fill:#5f63f2;}</style></defs><g transform="translate(0 0)"><g transform="translate(0)"><path class="a" d="M14.669,3.517,7.775.07a.606.606,0,0,0-.542,0L.339,3.517a.606.606,0,0,0,0,1.084L7.233,8.048a.606.606,0,0,0,.542,0L14.669,4.6a.606.606,0,0,0,0-1.084ZM7.5,6.828,1.965,4.059,7.5,1.289l5.539,2.77Z" transform="translate(-0.004 -0.006)"/></g></g><g transform="translate(0 10.341)"><path class="a" d="M14.936,353.306a.606.606,0,0,0-.813-.271L7.5,356.346.877,353.035a.606.606,0,0,0-.542,1.084l6.894,3.447a.606.606,0,0,0,.542,0l6.894-3.447A.606.606,0,0,0,14.936,353.306Z" transform="translate(0 -352.971)"/></g><g transform="translate(0 6.894)"><path class="a" d="M14.936,235.649a.606.606,0,0,0-.813-.271L7.5,238.69.877,235.378a.606.606,0,0,0-.542,1.084l6.894,3.447a.606.606,0,0,0,.542,0l6.894-3.447A.606.606,0,0,0,14.936,235.649Z" transform="translate(0 -235.314)"/></g></svg>